<?xml version="1.0" encoding="utf-8"?>
<!-- Generator: Adobe Illustrator 27.0.0, SVG Export Plug-In . SVG Version: 6.00 Build 0)  -->
<svg version="1.1" id="Camada_1" xmlns="http://www.w3.org/2000/svg" xmlns:xlink="http://www.w3.org/1999/xlink" x="0px" y="0px"
	 viewBox="0 0 549.2 133.8" style="enable-background:new 0 0 549.2 133.8;" xml:space="preserve">
<style type="text/css">
	.st0{fill:#264DE4;}
	.st1{fill:#2965F1;}
	.st2{fill:#EBEBEB;}
	.st3{fill:#F5F6FA;}
	.st4{fill:#FFFFFF;}
	.st5{fill:#0095DB;}
</style>
<g>
	<g id="layer1" transform="translate(-193.633,-276.3622)">
		<g id="g3013" transform="translate(119,276.3622)">
			<polygon id="polygon2989" class="st0" points="163.7,36.5 157.2,108.9 128.2,117 99.2,108.9 92.7,36.5 			"/>
			<polygon id="polygon2991" class="st1" points="151.7,104.3 157.2,42.4 128.2,42.4 128.2,110.8 			"/>
			<polygon id="polygon2993" class="st2" points="107.5,69.3 108.3,78.2 128.2,78.2 128.2,69.3 			"/>
			<polygon id="polygon2995" class="st2" points="128.2,51.3 128.2,51.3 105.9,51.3 106.7,60.2 128.2,60.2 			"/>
			<polygon id="polygon2997" class="st2" points="128.2,101.6 128.2,92.3 128.2,92.4 118.3,89.7 117.6,82.6 112.8,82.6 108.7,82.6 
				110,96.5 128.2,101.6 			"/>
			<path id="path2999" class="st3" d="M109.4,16.8h10.8v4.5h-6.3v4.5h6.3v4.5h-10.8V16.8z"/>
			<path id="path3001" class="st3" d="M122.3,16.8h10.8v3.9h-6.3v0.8h6.3v9h-10.8v-4.1h6.3v-0.8h-6.3V16.8z"/>
			<path id="path3003" class="st3" d="M135.2,16.8H146v3.9h-6.3v0.8h6.3v9h-10.8v-4.1h6.3v-0.8h-6.3V16.8z"/>
			<polygon id="polygon3005" class="st4" points="139.1,78.2 138.1,89.7 128.2,92.4 128.2,101.6 146.4,96.5 146.5,95 148.6,71.7 
				148.8,69.3 150.4,51.3 128.2,51.3 128.2,60.2 140.7,60.2 139.9,69.3 128.2,69.3 128.2,78.2 			"/>
		</g>
	</g>
	<g>
		<g>
			<path class="st3" d="M117.5,58.5c0,0,3.5,3.9,7.7,3.9c1.7,0,3.4-0.6,3.4-2.5c0-3.7-15.2-4.1-15.2-14.6c0-6.1,5.3-10.1,12-10.1
				c4.5,0,10.7,2.2,10.7,7.3v3.7h-7.5v-1.5c0-1.2-1.7-2-3.3-2c-1.7,0-3.4,0.7-3.4,2.3c0,4.1,15.2,3.5,15.2,14.6
				c0,5.6-4.4,10.4-11.9,10.4c-7.9,0-12.3-5.5-12.3-5.5L117.5,58.5z"/>
			<path class="st3" d="M152.5,44.6c7.1,0,11.2,5,11.2,11.7c0,0.8-0.2,2.4-0.2,2.4h-15.3c0.6,3.1,3.1,4.4,5.6,4.4
				c3.5,0,6.4-2.5,6.4-2.5l3.2,5.4c0,0-3.9,3.8-10.3,3.8c-8.6,0-13.3-6.2-13.3-12.7C139.9,50.1,144.7,44.6,152.5,44.6z M155.3,53.8
				c0-1.5-1.2-3.1-2.9-3.1c-2.3,0-3.5,1.3-4,3.1H155.3z"/>
			<path class="st3" d="M168.7,43.6c0-0.7-0.4-1-1-1h-1.8v-6.8h7.5c2.4,0,3.4,1,3.4,3.4v22.3c0,0.7,0.4,1,1,1h1.8v6.8h-7.5
				c-2.4,0-3.4-1-3.4-3.4V43.6z"/>
			<path class="st3" d="M194.3,44.6c7.1,0,11.2,5,11.2,11.7c0,0.8-0.2,2.4-0.2,2.4h-15.3c0.6,3.1,3.1,4.4,5.6,4.4
				c3.5,0,6.4-2.5,6.4-2.5l3.2,5.4c0,0-3.9,3.8-10.3,3.8c-8.6,0-13.3-6.2-13.3-12.7C181.7,50.1,186.5,44.6,194.3,44.6z M197.2,53.8
				c0-1.5-1.2-3.1-2.9-3.1c-2.3,0-3.5,1.3-4,3.1H197.2z"/>
			<path class="st3" d="M210.8,51.5h-3.1v-6.3h3.3v-6.5h7.9v6.5h5.1v6.3h-5.1v7.8c0,2.7,2.8,3.1,4.3,3.1c0.7,0,1.1,0,1.1,0v7
				c0,0-0.9,0.1-2.2,0.1c-3.9,0-11.3-1-11.3-9.2V51.5z"/>
			<path class="st3" d="M240.2,44.6c7.7,0,13.7,5.1,13.7,12.7c0,7.6-6.1,12.6-13.7,12.6c-7.6,0-13.7-5-13.7-12.6
				C226.6,49.7,232.6,44.6,240.2,44.6z M240.2,63.1c3,0,5.5-2.2,5.5-5.8c0-3.7-2.5-6-5.5-6c-3,0-5.5,2.3-5.5,6
				C234.8,60.9,237.3,63.1,240.2,63.1z"/>
			<path class="st3" d="M258.8,53c0-0.7-0.4-1-1-1H256v-6.8h7.2c2.2,0,3.4,0.9,3.4,3.1v1.3c0,0.8-0.1,1.2-0.1,1.2h0.1
				c1-3.3,4.1-6,7.7-6c0.5,0,0.9,0.1,0.9,0.1v8c0,0-0.7-0.1-1.6-0.1c-1.9,0-5.1,0.6-6.2,4.2c-0.3,0.9-0.4,2-0.4,3.3v9.2h-8.1V53z"/>
			<path class="st3" d="M289.2,44.6c7.1,0,11.2,5,11.2,11.7c0,0.8-0.2,2.4-0.2,2.4h-15.3c0.6,3.1,3.1,4.4,5.6,4.4
				c3.5,0,6.4-2.5,6.4-2.5l3.2,5.4c0,0-3.9,3.8-10.3,3.8c-8.6,0-13.3-6.2-13.3-12.7C276.6,50.1,281.4,44.6,289.2,44.6z M292,53.8
				c0-1.5-1.2-3.1-2.9-3.1c-2.3,0-3.5,1.3-4,3.1H292z"/>
			<path class="st3" d="M306.5,60.3c0,0,3.4,3.5,7.1,3.5c1.2,0,1.8-0.3,1.8-1.2c0-2-12.1-2.7-12.1-10.5c0-5.2,4.8-7.5,10-7.5
				c3.9,0,9.4,1.1,9.4,5.5v2.9h-7v-1.2c0-0.7-1-1.1-2.2-1.1c-1.1,0-2.2,0.4-2.2,1.1c0,2.5,12.3,2.2,12.3,10.3c0,4.9-4.3,7.8-9.9,7.8
				c-6.9,0-10.7-4.4-10.7-4.4L306.5,60.3z"/>
			<path class="st3" d="M340.9,53c0-0.7-0.4-1-1-1H338v-6.8h7.2c2.2,0,3.4,1.1,3.4,2.7v0.3c0,0.2,0,0.6,0,0.6h0.1
				c1.1-1.9,3.4-4.2,7.7-4.2c4.9,0,8.7,2.3,8.7,9.1v7.8c0,0.7,0.4,1,1,1h1.8v6.8h-7.5c-2.4,0-3.4-1-3.4-3.4V55.1
				c0-2.3-0.9-3.2-2.7-3.2c-2.5,0-4.1,1.4-4.8,3.5c-0.3,0.9-0.5,2-0.5,3.2v10.7h-8.1V53z"/>
			<path class="st3" d="M423.8,35.2c4,0,12.9,1.5,12.9,7.8v4.4h-7.5v-1.8c0-1.9-3-2.7-5.2-2.7c-4.9,0-8.8,3.1-8.8,9.2
				c0,5.5,4.1,10,9,10c5.9,0,9.6-4.3,9.6-4.3l4.3,6c0,0-5.1,6-14,6c-10.6,0-17.6-7.6-17.6-17.7C406.4,42.6,413.8,35.2,423.8,35.2z"
				/>
			<path class="st3" d="M442.6,43.6c0-0.7-0.4-1-1-1h-1.8v-6.8h7.5c2.4,0,3.4,1,3.4,3.4v7.2c0,1.2-0.1,2.1-0.1,2.1h0.1
				c1.4-2.4,4.2-3.8,7.4-3.8c4.9,0,8.7,2.3,8.7,9.1v7.8c0,0.7,0.4,1,1,1h1.8v6.8h-7.5c-2.4,0-3.4-1-3.4-3.4V55.1
				c0-2.3-0.9-3.2-2.7-3.2c-2.5,0-4.1,1.5-4.8,3.6c-0.3,0.9-0.4,2-0.4,3.1v10.7h-8.1V43.6z"/>
			<path class="st3" d="M474.2,53c0-0.7-0.4-1-1-1h-1.8v-6.8h7.5c2.4,0,3.4,1,3.4,3.4v12.9c0,0.7,0.4,1,1,1h1.8v6.8h-7.5
				c-2.4,0-3.4-1-3.4-3.4V53z M474.9,35.7h6.8v6.6h-6.8V35.7z"/>
			<path class="st3" d="M489.7,43.6c0-0.7-0.4-1-1-1h-1.8v-6.8h7.5c2.4,0,3.4,1,3.4,3.4v22.3c0,0.7,0.4,1,1,1h1.8v6.8h-7.5
				c-2.4,0-3.4-1-3.4-3.4V43.6z"/>
			<path class="st3" d="M513.8,44.6c4.9,0,6.3,1.7,6.3,1.7h0.1c0,0,0-0.5,0-1.1v-1.6c0-0.7-0.4-1-1-1h-1.8v-6.8h7.5
				c2.4,0,3.4,1,3.4,3.4v22.3c0,0.7,0.4,1,1,1h1.8v6.8h-7.2c-2.3,0-3.1-1.2-3.1-2.3c0-0.2,0-0.4,0-0.4h-0.1c0,0-2,3.3-7,3.3
				c-6.6,0-10.9-5.2-10.9-12.7C502.8,49.5,507.4,44.6,513.8,44.6z M520.4,57.2c0-2.9-1.5-5.8-4.7-5.8c-2.5,0-4.7,2.1-4.7,5.8
				c0,3.6,1.9,6,4.7,6C518.1,63.2,520.4,61.4,520.4,57.2z"/>
			<path class="st3" d="M120.5,90c4.7,0,7.3,3.3,7.3,7.6c0,0.5-0.1,1.6-0.1,1.6h-10c0.4,2,2,2.9,3.7,2.9c2.3,0,4.2-1.7,4.2-1.7
				l2.1,3.6c0,0-2.5,2.5-6.7,2.5c-5.6,0-8.7-4.1-8.7-8.3C112.3,93.6,115.5,90,120.5,90z M122.4,96c0-1-0.8-2-1.9-2
				c-1.5,0-2.3,0.9-2.6,2H122.4z"/>
			<path class="st3" d="M131.3,95.5c0-0.4-0.2-0.7-0.7-0.7h-1.2v-4.4h4.8c1.4,0,2.2,0.7,2.2,1.8v0.2c0,0.2,0,0.4,0,0.4h0.1
				c0.7-1.1,2.1-2.7,4.6-2.7c2,0,3.6,0.9,4.4,2.7h0.1c0.8-1.3,2.7-2.7,5.1-2.7c2.9,0,5.1,1.6,5.1,5.9v5.1c0,0.4,0.2,0.7,0.7,0.7h1.2
				v4.4h-4.9c-1.6,0-2.2-0.7-2.2-2.2v-7.1c0-1.2-0.2-2-1.2-2c-1.6,0-2.5,1.3-2.9,3c-0.1,0.6-0.2,1.1-0.2,1.8v6.5h-5.3v-9.4
				c0-1.2-0.2-2-1.2-2c-1.6,0-2.5,1.2-2.8,2.9c-0.1,0.6-0.2,1.2-0.2,1.9v6.5h-5.3V95.5z"/>
			<path class="st5" d="M178.2,83.8c2.6,0,8.4,1,8.4,5.1v2.9h-4.9v-1.2c0-1.3-2-1.7-3.4-1.7c-3.2,0-5.8,2.1-5.8,6
				c0,3.6,2.7,6.5,5.9,6.5c3.8,0,6.3-2.8,6.3-2.8l2.8,3.9c0,0-3.3,3.9-9.1,3.9c-6.9,0-11.5-5-11.5-11.6
				C166.8,88.6,171.6,83.8,178.2,83.8z"/>
			<path class="st5" d="M192.1,99c0,0,2.3,2.6,5,2.6c1.1,0,2.2-0.4,2.2-1.6c0-2.4-9.9-2.7-9.9-9.6c0-4,3.5-6.6,7.8-6.6
				c2.9,0,7,1.4,7,4.8V91h-4.9v-1c0-0.8-1.1-1.3-2.1-1.3c-1.1,0-2.2,0.5-2.2,1.5c0,2.7,9.9,2.3,9.9,9.5c0,3.6-2.9,6.8-7.8,6.8
				c-5.2,0-8-3.6-8-3.6L192.1,99z"/>
			<path class="st5" d="M209.6,99c0,0,2.3,2.6,5,2.6c1.1,0,2.2-0.4,2.2-1.6c0-2.4-9.9-2.7-9.9-9.6c0-4,3.5-6.6,7.8-6.6
				c2.9,0,7,1.4,7,4.8V91h-4.9v-1c0-0.8-1.1-1.3-2.1-1.3c-1.1,0-2.2,0.5-2.2,1.5c0,2.7,9.9,2.3,9.9,9.5c0,3.6-2.9,6.8-7.8,6.8
				c-5.2,0-8-3.6-8-3.6L209.6,99z"/>
		</g>
		<g>
			<g>
				<path class="st3" d="M371,42.3h-1.6V39h1.8v-3.5h4.2V39h2.7v3.4h-2.7v4.2c0,1.4,1.5,1.6,2.3,1.6c0.3,0,0.6,0,0.6,0v3.7
					c0,0-0.5,0.1-1.2,0.1c-2,0-6-0.5-6-4.9V42.3z"/>
				<path class="st3" d="M380.7,38.2c0-0.3-0.2-0.5-0.5-0.5h-0.9V34h4c1.3,0,1.8,0.5,1.8,1.8v3.8c0,0.6,0,1.1,0,1.1h0
					c0.7-1.3,2.2-2,3.9-2c2.6,0,4.6,1.2,4.6,4.8v4.2c0,0.3,0.2,0.5,0.5,0.5h0.9v3.6h-4c-1.3,0-1.8-0.5-1.8-1.8v-5.7
					c0-1.2-0.5-1.7-1.4-1.7c-1.3,0-2.2,0.8-2.6,1.9c-0.2,0.5-0.2,1-0.2,1.6v5.7h-4.3V38.2z"/>
			</g>
		</g>
	</g>
</g>
</svg>
